<?xml version="1.0" encoding="utf-8"?>
<svg xmlns="http://www.w3.org/2000/svg" width="108" height="108" viewBox="0 0 108 108" fill="none">
<g clip-path="url(#clip0_759_14005)">
<path d="M37.4182 94.5069C36.735 93.9748 35.9754 93.5476 35.1648 93.2393C34.4063 92.9735 33.6114 92.8244 32.8077 92.7972C31.0513 92.7734 29.3002 92.9917 27.6041 93.4457C25.8844 93.8584 24.2388 94.3742 23.0232 94.7869C21.8075 95.1996 21.007 95.5092 21.007 95.5092C21.007 95.5092 21.7927 95.9513 23.038 96.4819C24.5973 97.1552 26.2287 97.6497 27.9006 97.9558C29.7906 98.3283 31.7402 98.2779 33.6082 97.8084C34.4782 97.6375 35.288 97.2426 35.9565 96.6633C36.6251 96.084 37.1291 95.3404 37.4182 94.5069Z" fill="url(#paint0_linear_759_14005)"/>
<path d="M32.17 86.9606C32.8175 88.4867 33.8364 89.8289 35.135 90.8665C35.7536 91.3451 36.4734 91.6777 37.2402 91.8392C38.0306 91.9999 38.8512 91.9229 39.5974 91.6181C39.646 90.0565 39.2226 88.5163 38.3817 87.1964C37.5719 85.9794 36.5708 84.8995 35.4167 83.998C34.4107 83.1929 33.3562 82.4497 32.259 81.7724C31.3843 81.2271 30.7765 80.9028 30.7765 80.9028C30.7765 80.9028 30.7765 81.0944 30.7765 81.4334C30.7765 81.7724 30.8654 82.2441 30.9692 82.8189C31.1973 84.2432 31.6006 85.6342 32.17 86.9606Z" fill="url(#paint1_linear_759_14005)"/>
<path d="M19.8062 90.9249C20.645 90.9124 21.4698 90.7094 22.2175 90.3313C22.9653 89.9532 23.6161 89.4101 24.1202 88.7435C23.7206 88.0537 23.1872 87.4497 22.551 86.9665C21.9148 86.4832 21.1884 86.1304 20.414 85.9283C18.7342 85.4942 17.0053 85.2763 15.2697 85.2798C13.5055 85.2798 11.7414 85.2798 10.4219 85.2798H8.21301L8.67259 85.7662C8.98391 86.0463 9.42866 86.459 9.99201 86.9159C11.3478 88.0267 12.8428 88.9581 14.4395 89.6868C16.1104 90.4999 17.9459 90.9233 19.8062 90.9249Z" fill="url(#paint2_linear_759_14005)"/>
<path d="M23.1567 84.1601C23.6129 84.7934 24.2202 85.304 24.9241 85.6462C25.6279 85.9884 26.4062 86.1513 27.1891 86.1204C27.807 84.6351 27.844 82.9739 27.2929 81.4629C26.7928 80.0601 26.0777 78.7426 25.1729 77.557C24.3279 76.4074 23.468 75.4346 22.8454 74.7271L22.0893 73.9017L21.8076 73.6069C21.8076 73.6069 21.8076 73.7838 21.6594 74.0933C21.5111 74.4028 21.4815 74.8745 21.3925 75.4198C21.1743 76.8364 21.1743 78.2777 21.3925 79.6942C21.5913 81.3072 22.1983 82.8437 23.1567 84.1601Z" fill="url(#paint3_linear_759_14005)"/>
<path d="M2.0162 71.8973C0.80055 71.5141 0 71.293 0 71.293C0 71.293 0.0741248 71.4993 0.2372 71.8383C0.400275 72.1773 0.6523 72.6342 0.963626 73.1943C1.27495 73.7544 1.6604 74.4029 2.10515 75.0809C2.32753 75.4199 2.56473 75.7589 2.81675 76.1127L3.00948 76.378L3.2615 76.7022L3.78038 77.3507C5.06099 78.9557 6.76502 80.1753 8.70228 80.8734C9.50501 81.1649 10.3679 81.2543 11.2138 81.1334C12.0598 81.0125 12.8624 80.6852 13.5501 80.1806C13.1542 78.6055 12.2018 77.2244 10.8667 76.2895C10.5408 76.0239 10.1992 75.7778 9.84381 75.5526C9.488 75.302 9.10255 75.0809 8.7171 74.8451C8.33165 74.6093 7.93138 74.3734 7.51628 74.1524C7.10118 73.9313 6.7602 73.7544 6.37475 73.5628C4.95868 72.9168 3.50292 72.3605 2.0162 71.8973Z" fill="url(#paint4_linear_759_14005)"/>
<path d="M5.67797 28.6821C5.90945 28.3822 6.10358 28.0556 6.25614 27.7093C6.40463 27.3638 6.51401 27.0029 6.58229 26.6334C6.58229 26.2796 6.68607 25.8964 6.73054 25.5132C6.78032 24.6952 6.73555 23.8743 6.59712 23.0665C6.47994 22.2474 6.31661 21.4355 6.10789 20.6346C5.67797 18.9543 5.21839 17.3772 4.78847 16.2128C4.35854 15.0484 4.09169 14.2378 4.09169 14.2378C4.09169 14.2378 3.97309 14.4147 3.79519 14.7537C3.61729 15.0927 3.38009 15.579 3.09842 16.2276C2.42489 17.7077 1.92736 19.2609 1.61592 20.8556C1.46585 21.7573 1.38162 22.6686 1.36389 23.5824C1.36898 24.0263 1.40365 24.4695 1.46767 24.9089C1.53713 25.3316 1.63118 25.7499 1.74934 26.1617C1.96775 26.9457 2.35186 27.6743 2.87604 28.2989C3.41498 28.9486 4.10778 29.455 4.89224 29.7728C5.20342 29.4469 5.46783 29.0799 5.67797 28.6821Z" fill="url(#paint5_linear_759_14005)"/>
<path d="M19.732 22.2855C19.895 22.0496 19.9692 21.917 19.9692 21.917H19.4503C19.0945 21.917 18.6349 21.917 18.0716 22.0349C17.5082 22.1528 16.8411 22.2118 16.1295 22.3739C15.7591 22.4482 15.393 22.5417 15.0324 22.6539C14.6618 22.7719 14.306 22.9045 13.9354 23.0519C13.177 23.338 12.4514 23.7036 11.7709 24.1426C11.1211 24.5558 10.528 25.0512 10.0068 25.6165C9.76689 25.9003 9.56277 26.2121 9.39893 26.5451C9.23587 26.8701 9.10671 27.2109 9.01348 27.5621C8.91233 27.9168 8.86241 28.284 8.86522 28.6528C8.89761 29.0476 8.97215 29.4379 9.0876 29.8171C9.8961 29.966 10.7252 29.966 11.5337 29.8171C12.271 29.6491 12.9801 29.376 13.6389 29.0065C13.9502 28.8149 14.2615 28.6233 14.558 28.4022L14.9731 28.0632L15.4031 27.7094C15.9388 27.2613 16.4348 26.7682 16.8856 26.2355C17.3328 25.7461 17.7487 25.2292 18.1309 24.6879L18.3977 24.3195L18.6497 23.9657C18.8276 23.7446 18.9759 23.5236 19.1093 23.3319C19.391 22.875 19.5985 22.536 19.732 22.2855Z" fill="url(#paint6_linear_759_14005)"/>
<path d="M10.5107 17.8339C11.2113 17.4937 11.8171 16.9876 12.2749 16.36C12.7337 15.7623 13.071 15.0814 13.2681 14.3555C13.6865 12.7494 13.8614 11.0901 13.787 9.43266C13.787 9.00523 13.787 8.5778 13.787 8.1651C13.787 7.75241 13.787 7.35445 13.787 6.9565C13.787 6.17533 13.6388 5.48259 13.5795 4.81933C13.446 3.58125 13.3126 2.75586 13.3126 2.75586L12.9123 3.19803C12.5706 3.58428 12.249 3.98767 11.9487 4.40664C10.9366 5.66589 10.0805 7.04159 9.39881 8.5041C9.0464 9.32419 8.76373 10.1722 8.55378 11.0392C8.37227 11.8815 8.29756 12.7431 8.33141 13.6038C8.35323 14.4261 8.56035 15.233 8.93752 15.9651C9.31468 16.6972 9.85228 17.3358 10.5107 17.8339Z" fill="url(#paint7_linear_759_14005)"/>
<path d="M22.9639 16.9353C23.516 16.5477 24.0456 16.1294 24.5502 15.6825C25.0246 15.2698 25.4694 14.8866 25.8103 14.5476L26.6554 13.7074L26.9667 13.3832C26.3394 13.2574 25.7061 13.1639 25.0691 13.1031C24.4334 13.0428 23.7952 13.0133 23.1567 13.0147C22.3613 13.0458 21.5689 13.1295 20.7847 13.2653C19.1878 13.4617 17.6622 14.0381 16.3372 14.9455C15.7391 15.394 15.2354 15.9549 14.8547 16.5963C14.5166 17.2725 14.3584 18.0235 14.3951 18.7777C15.8548 19.4183 17.4994 19.5074 19.0205 19.0282C19.7333 18.8227 20.4198 18.5358 21.0663 18.1734C21.7342 17.8169 22.3692 17.4026 22.9639 16.9353Z" fill="url(#paint8_linear_759_14005)"/>
<path d="M19.7914 83.9096C24.6494 87.6207 30.0485 90.573 35.8024 92.6646C40.3833 94.507 46.2837 97.5285 52.273 100.329C47.3633 101.897 40.1713 104.227 35.0993 105.153C34.5508 105.241 37.4268 108.1 37.9605 107.997C42.9269 106.523 50.153 103.63 55.1194 101.641C59.9522 104.002 65.0544 106.854 70.315 107.997C70.8635 108.086 72.5832 105.153 72.0347 105.049C67.2662 104.196 62.561 101.944 57.951 100.462C66.2678 96.9832 74.2585 93.092 81.2262 89.3041C88.6044 85.4137 94.5255 79.2633 98.1119 71.7646C101.699 64.6185 103.812 56.8306 104.324 48.86C104.828 37.9089 101.121 27.1641 95.4286 17.9079C93.7315 15.1516 91.0238 11.6427 88.9694 9.13823C89.1163 8.47803 89.1163 7.79391 88.9694 7.13371C88.8395 6.38002 88.5516 5.66192 88.1244 5.02602C87.1522 3.68013 85.8716 2.58376 84.3885 1.82765C83.0932 1.13282 81.7129 0.607674 80.282 0.265303C79.7038 0.132652 79.2442 0.0442172 78.9181 0H78.5475H78.414V0.117913L78.6661 0.412694L79.2887 1.60656C79.8372 2.59408 80.5637 3.89112 81.4383 5.15868C81.8744 5.79736 82.3445 6.41237 82.8467 7.00106C83.096 7.2882 83.3687 7.55441 83.6621 7.79697C84.4332 8.57593 85.3931 9.14443 86.4492 9.44775C87.0165 9.58472 87.6007 9.63933 88.1837 9.60988C92.1405 14.3537 96.2484 20.4852 98.7642 26.1176C101.988 33.0922 103.589 40.6993 103.449 48.3736C103.008 56.8595 100.7 65.146 96.6887 72.6489C93.8097 78.3619 89.4364 83.1986 84.0281 86.6511C79.0562 89.6667 73.8452 92.2743 68.4471 94.448C64.4443 96.1725 59.7003 97.9265 54.897 99.4888C45.0497 96.2613 35.5096 92.1724 26.3885 87.2701C22.4673 85.1481 18.9541 82.3538 16.011 79.0162C13.1819 75.5591 10.9204 71.679 9.31009 67.5197C5.91576 59.8859 4.30887 51.5855 4.61056 43.2445C5.43043 33.3884 8.84033 23.9193 14.4988 15.7855C15.9012 13.6552 17.4206 11.6034 19.0501 9.63934C19.6134 9.66148 20.177 9.60693 20.7253 9.47721C21.4258 9.27998 22.0875 8.96601 22.6823 8.54865C22.9902 8.33363 23.2825 8.09725 23.5569 7.8412C23.8238 7.59064 24.0906 7.32534 24.3575 7.03055C24.8931 6.45577 25.3884 5.84512 25.84 5.20291C26.7147 3.93535 27.4411 2.62355 27.9896 1.63603C28.2565 1.14964 28.464 0.736953 28.6123 0.442171C28.6732 0.332447 28.7277 0.219252 28.7753 0.103172V0H28.6567H28.2861C27.8264 0.0603729 27.3709 0.148976 26.9222 0.265302C25.4977 0.606377 24.1228 1.12643 22.8305 1.8129C21.3509 2.57412 20.0714 3.66957 19.0946 5.0113C18.6415 5.6488 18.3375 6.37903 18.2051 7.14847C18.0576 7.79367 18.0576 8.46353 18.2051 9.10873C14.4319 13.6874 11.2679 18.7304 8.79122 24.1131C5.72013 30.5532 3.97609 37.5391 3.66176 44.6594C3.35044 52.8396 5.57419 60.6807 8.67261 68.2418C11.0267 74.2939 14.8457 79.6755 19.7914 83.9096Z" fill="url(#paint9_linear_759_14005)"/>
<path d="M80.0552 98.7513C81.7286 98.4516 83.3608 97.9569 84.9178 97.2774C86.1631 96.732 86.9488 96.2899 86.9488 96.2899C86.9488 96.2899 86.1482 95.9803 84.9326 95.5824C83.7169 95.1844 82.0714 94.6538 80.3517 94.2264C78.6699 93.7764 76.934 93.5582 75.1926 93.5779C73.5045 93.6384 71.8859 94.2613 70.5968 95.3466C70.8894 96.1714 71.3911 96.9073 72.0533 97.483C72.7155 98.0588 73.5159 98.455 74.3772 98.6334C76.2386 99.0834 78.1765 99.1236 80.0552 98.7513Z" fill="url(#paint10_linear_759_14005)"/>
<path d="M70.804 92.6347C71.5708 92.4732 72.2907 92.1405 72.9092 91.6619C74.2072 90.6298 75.2262 89.2926 75.8742 87.7708C76.4524 86.435 76.8655 85.0344 77.1047 83.5997C77.2084 83.0249 77.2529 82.5385 77.2974 82.2142C77.3419 81.8899 77.2974 81.6836 77.2974 81.6836C77.2974 81.6836 76.7044 81.9931 75.8149 82.5385C74.7177 83.2157 73.6632 83.959 72.6572 84.7641C71.5036 85.6719 70.5027 86.7565 69.6922 87.9772C68.8607 89.3005 68.4428 90.8393 68.4913 92.3989C69.2209 92.7068 70.0268 92.789 70.804 92.6347Z" fill="url(#paint11_linear_759_14005)"/>
<path d="M92.7304 86.1054C90.9942 86.1065 89.2653 86.3294 87.5862 86.7686C86.8198 86.9716 86.1022 87.3253 85.4758 87.8088C84.8494 88.2924 84.3269 88.8959 83.9392 89.5838C84.4418 90.251 85.0926 90.7937 85.841 91.1695C86.5893 91.5454 87.4149 91.7442 88.2533 91.7504C90.1119 91.7638 91.9485 91.3502 93.6199 90.5418C95.2196 89.8186 96.7153 88.8867 98.0674 87.7709C98.6308 87.3287 99.0755 86.9013 99.3869 86.6212L99.8613 86.1348H97.6375C96.2588 86.0906 94.4946 86.0612 92.7304 86.1054Z" fill="url(#paint12_linear_759_14005)"/>
<path d="M80.8853 86.9609C81.6665 86.9908 82.4431 86.829 83.1464 86.4896C83.8497 86.1503 84.458 85.6439 84.9177 85.0153C85.8804 83.7149 86.4973 82.1941 86.7116 80.5936C86.9298 79.182 86.9298 77.7456 86.7116 76.334C86.6456 75.8827 86.5565 75.435 86.4447 74.9927C86.3558 74.6832 86.2965 74.5063 86.2965 74.5063L86.0148 74.8011C85.8221 74.9927 85.57 75.2875 85.2587 75.6265C84.6361 76.334 83.7762 77.3215 82.9312 78.4712C82.0233 79.6548 81.3079 80.9728 80.8112 82.377C80.2668 83.8618 80.2932 85.4942 80.8853 86.9609Z" fill="url(#paint13_linear_759_14005)"/>
<path d="M104.22 78.1173C104.398 77.911 104.561 77.6899 104.739 77.4688L104.976 77.1446L105.183 76.8793C105.435 76.5403 105.672 76.1865 105.895 75.8475C106.34 75.1695 106.725 74.521 107.036 73.9757C107.348 73.4303 107.6 72.9292 107.763 72.6049C107.926 72.2807 108 72.0596 108 72.0596L105.984 72.6639C104.499 73.1393 103.044 73.7003 101.625 74.3441C101.24 74.521 100.854 74.7126 100.469 74.919L99.2829 75.6117L98.1562 76.3192C97.8004 76.5697 97.4446 76.8056 97.1333 77.0561C95.7745 78.02 94.8195 79.4468 94.45 81.0652C95.1364 81.5721 95.9392 81.9009 96.7856 82.0219C97.632 82.1428 98.4954 82.0521 99.2977 81.7579C101.252 81.0322 102.959 79.7698 104.22 78.1173Z" fill="url(#paint14_linear_759_14005)"/>
<path d="M103.908 14.9458C103.908 14.9458 103.627 15.727 103.212 16.9208C102.796 18.1147 102.322 19.7065 101.892 21.3426C101.679 22.1724 101.516 23.014 101.403 23.8629C101.264 24.6657 101.219 25.4818 101.269 26.2949C101.269 26.6781 101.269 27.0613 101.418 27.4298C101.488 27.7941 101.597 28.1498 101.744 28.491C101.896 28.8373 102.091 29.1639 102.322 29.4638C102.542 29.7973 102.806 30.0998 103.108 30.3629C103.89 30.0409 104.582 29.5352 105.124 28.889C105.651 28.2608 106.035 27.5267 106.251 26.7371C106.369 26.3252 106.463 25.9069 106.532 25.4842C106.596 25.0448 106.631 24.6017 106.636 24.1577C106.618 23.2488 106.534 22.3425 106.384 21.4457C106.075 19.8504 105.577 18.2969 104.902 16.8177C104.635 16.2134 104.383 15.727 104.22 15.3438L103.908 14.9458Z" fill="url(#paint15_linear_759_14005)"/>
<path d="M98.6011 27.4591C98.4443 27.1223 98.2396 26.8096 97.9933 26.5306C97.4756 25.9616 96.882 25.4657 96.2291 25.0567C95.5487 24.6177 94.8231 24.252 94.0647 23.966C93.694 23.8186 93.3234 23.6859 92.9676 23.5827C92.6073 23.4658 92.2411 23.3674 91.8706 23.288C91.1441 23.1258 90.4918 23.0227 89.9285 22.949C89.3651 22.8753 88.9056 22.8458 88.5646 22.8311H88.0309L88.2533 23.2143C88.4015 23.4501 88.6091 23.8038 88.8759 24.2018C89.1428 24.5997 89.1576 24.6145 89.3355 24.8503L89.5875 25.204L89.8544 25.5725C90.2365 26.1138 90.6524 26.6307 91.0997 27.1201C91.55 27.6532 92.046 28.1463 92.5822 28.594C92.7187 28.7198 92.8623 28.8379 93.0121 28.9478L93.4272 29.2868C93.7207 29.5069 94.0277 29.7087 94.3463 29.8911C95.0023 30.2666 95.7123 30.54 96.4515 30.7017C97.2593 30.858 98.0898 30.858 98.8976 30.7017C99.0131 30.3225 99.0876 29.9322 99.12 29.5373C99.1228 29.1735 99.0729 28.8111 98.9717 28.4614C98.8847 28.1151 98.7604 27.779 98.6011 27.4591Z" fill="url(#paint16_linear_759_14005)"/>
<path d="M97.4893 18.6596C98.1501 18.166 98.6905 17.5307 99.0704 16.8009C99.4503 16.0712 99.6598 15.2656 99.6834 14.4442C99.7056 13.5831 99.6259 12.7223 99.4462 11.8796C99.2385 11.0072 98.9558 10.1541 98.6012 9.32978C98.254 8.5445 97.8579 7.7815 97.4152 7.04523C97.0352 6.41312 96.6194 5.80293 96.1699 5.21758C95.7993 4.70171 95.4435 4.28902 95.2063 4.00898L94.8208 3.58154C94.8208 3.58154 94.6726 4.40693 94.5392 5.63027C94.465 6.26406 94.3909 6.98627 94.3316 7.76744C94.3316 8.1654 94.3316 8.56335 94.3316 8.97605C94.3316 9.38874 94.3316 9.81617 94.3316 10.2436C94.2572 11.9011 94.4321 13.5603 94.8505 15.1665C95.0309 15.8948 95.3532 16.5808 95.7993 17.1857C96.2391 17.8015 96.8179 18.3063 97.4893 18.6596Z" fill="url(#paint17_linear_759_14005)"/>
<path d="M91.6333 15.6967C90.3071 14.794 88.7815 14.2227 87.1858 14.0312C86.4212 13.9081 85.6476 13.849 84.8731 13.8543C84.1467 13.8543 83.4795 13.8543 82.9014 13.8543C82.2531 13.9385 81.6098 14.0565 80.9741 14.2081L81.2854 14.5323L82.1156 15.3725C82.4714 15.7262 82.9162 16.0947 83.3906 16.5221C83.896 16.9682 84.4255 17.3864 84.9769 17.7749C85.5594 18.204 86.174 18.5883 86.8152 18.9246C87.4556 19.2993 88.1437 19.5868 88.861 19.7795C90.3801 20.2646 92.0252 20.1807 93.4864 19.5436C93.5257 18.7845 93.3674 18.0281 93.0268 17.3475C92.6724 16.714 92.1994 16.1537 91.6333 15.6967Z" fill="url(#paint18_linear_759_14005)"/>
<path d="M20.922 62L20.252 60.44H16.972L16.302 62H14.732L17.972 54.95H19.222L22.462 62H20.922ZM17.482 59.26H19.742L18.612 56.62L17.482 59.26ZM26.3929 62.09C25.4063 62.09 24.6529 61.8367 24.1329 61.33C23.6196 60.8167 23.3629 60.07 23.3629 59.09V54.95H24.8929V59.16C24.8929 59.72 25.0196 60.1467 25.2729 60.44C25.5329 60.7333 25.9063 60.88 26.3929 60.88C26.8796 60.88 27.2529 60.7333 27.5129 60.44C27.7729 60.14 27.9029 59.7133 27.9029 59.16V54.95H29.4329V59.09C29.4329 60.0633 29.1729 60.8067 28.6529 61.32C28.1329 61.8333 27.3796 62.09 26.3929 62.09ZM32.8255 62V56.22H30.6155V54.95H36.5955V56.22H34.3855V62H32.8255ZM42.5962 54.95H44.1262V62H42.5962V59.04H39.3462V62H37.8162V54.95H39.3462V57.8H42.5962V54.95ZM45.9311 62V54.95H50.7911V56.16H47.4511V57.81H50.5911V59.02H47.4511V60.79H50.7911V62H45.9311ZM56.9188 54.95H58.3788V62H57.2188L53.7088 57.51V62H52.2588V54.95H53.4088L56.9188 59.42V54.95ZM61.8083 62V56.22H59.5983V54.95H65.5783V56.22H63.3683V62H61.8083ZM66.799 62V54.95H68.359V62H66.799ZM73.468 62.09C72.7547 62.09 72.1313 61.94 71.598 61.64C71.0713 61.34 70.6647 60.9167 70.378 60.37C70.098 59.8233 69.958 59.19 69.958 58.47C69.958 57.75 70.098 57.1167 70.378 56.57C70.6647 56.0233 71.0713 55.6033 71.598 55.31C72.1313 55.01 72.7547 54.86 73.468 54.86C73.9347 54.86 74.3813 54.9333 74.808 55.08C75.2347 55.22 75.5847 55.4167 75.858 55.67L75.358 56.78C75.0513 56.5467 74.7447 56.3767 74.438 56.27C74.138 56.1633 73.8247 56.11 73.498 56.11C72.8713 56.11 72.388 56.31 72.048 56.71C71.7147 57.11 71.548 57.6967 71.548 58.47C71.548 59.2433 71.7147 59.8333 72.048 60.24C72.388 60.64 72.8713 60.84 73.498 60.84C73.8247 60.84 74.138 60.7867 74.438 60.68C74.7447 60.5733 75.0513 60.4033 75.358 60.17L75.858 61.28C75.5847 61.5333 75.2347 61.7333 74.808 61.88C74.3813 62.02 73.9347 62.09 73.468 62.09ZM77.3353 62V54.95H78.8953V62H77.3353ZM82.3243 62V56.22H80.1143V54.95H86.0943V56.22H83.8843V62H82.3243ZM93.6806 54.95L90.7606 58.81V62H89.2006V58.81L86.2906 54.95H88.0606L89.9706 57.56L91.9106 54.95H93.6806Z" fill="url(#paint19_linear_759_14005)"/>
<path d="M39.1857 45.724C39.5517 45.826 39.8337 46.012 40.0317 46.282C40.2357 46.552 40.3377 46.882 40.3377 47.272C40.3377 47.812 40.1427 48.235 39.7527 48.541C39.3687 48.847 38.8377 49 38.1597 49H35.2797V42.655H38.0697C38.7297 42.655 39.2457 42.802 39.6177 43.096C39.9957 43.384 40.1847 43.789 40.1847 44.311C40.1847 44.647 40.0947 44.938 39.9147 45.184C39.7407 45.43 39.4977 45.61 39.1857 45.724ZM36.4137 45.328H37.8807C38.6787 45.328 39.0777 45.031 39.0777 44.437C39.0777 44.137 38.9787 43.915 38.7807 43.771C38.5827 43.627 38.2827 43.555 37.8807 43.555H36.4137V45.328ZM38.0337 48.1C38.4537 48.1 38.7597 48.025 38.9517 47.875C39.1437 47.725 39.2397 47.491 39.2397 47.173C39.2397 46.855 39.1407 46.618 38.9427 46.462C38.7507 46.306 38.4477 46.228 38.0337 46.228H36.4137V48.1H38.0337ZM47.1423 49H45.8823L44.7933 46.975C44.6913 46.783 44.5653 46.648 44.4153 46.57C44.2653 46.492 44.0763 46.453 43.8483 46.453H42.9663V49H41.8233V42.655H44.6313C45.3513 42.655 45.8973 42.817 46.2693 43.141C46.6473 43.459 46.8363 43.921 46.8363 44.527C46.8363 45.013 46.6983 45.415 46.4223 45.733C46.1523 46.045 45.7683 46.249 45.2703 46.345C45.6063 46.435 45.8763 46.672 46.0803 47.056L47.1423 49ZM44.4693 45.562C44.9073 45.562 45.2283 45.481 45.4323 45.319C45.6363 45.151 45.7383 44.896 45.7383 44.554C45.7383 44.206 45.6363 43.954 45.4323 43.798C45.2283 43.636 44.9073 43.555 44.4693 43.555H42.9573V45.562H44.4693ZM51.2631 49.081C50.6451 49.081 50.1081 48.949 49.6521 48.685C49.2021 48.421 48.8541 48.043 48.6081 47.551C48.3621 47.059 48.2391 46.483 48.2391 45.823C48.2391 45.163 48.3591 44.59 48.5991 44.104C48.8451 43.612 49.1961 43.234 49.6521 42.97C50.1081 42.706 50.6451 42.574 51.2631 42.574C51.8811 42.574 52.4151 42.706 52.8651 42.97C53.3211 43.234 53.6691 43.612 53.9091 44.104C54.1551 44.59 54.2781 45.163 54.2781 45.823C54.2781 46.483 54.1551 47.059 53.9091 47.551C53.6631 48.043 53.3121 48.421 52.8561 48.685C52.4061 48.949 51.8751 49.081 51.2631 49.081ZM51.2631 48.154C51.8451 48.154 52.2981 47.953 52.6221 47.551C52.9521 47.149 53.1171 46.573 53.1171 45.823C53.1171 45.073 52.9521 44.5 52.6221 44.104C52.2981 43.702 51.8451 43.501 51.2631 43.501C50.6751 43.501 50.2161 43.702 49.8861 44.104C49.5621 44.5 49.4001 45.073 49.4001 45.823C49.4001 46.573 49.5621 47.149 49.8861 47.551C50.2161 47.953 50.6751 48.154 51.2631 48.154ZM60.1168 42.655H61.2058V49H60.3328L56.9308 44.572V49H55.8508V42.655H56.7148L60.1168 47.074V42.655ZM64.0184 48.073H67.3934V49H62.7224V48.154L65.9804 43.582H62.7224V42.655H67.2944V43.492L64.0184 48.073ZM68.7885 49V42.655H73.0365V43.573H69.9225V45.319H72.8565V46.228H69.9225V48.082H73.0365V49H68.7885Z" fill="url(#paint20_linear_759_14005)"/>
<path d="M46.9122 15C46.4084 15 46 15.4084 46 15.9122V30.0878C46 30.5916 46.4084 31 46.9122 31H61.0877C61.5915 31 61.9999 30.5916 61.9999 30.0878V24.0947C61.9999 23.8064 61.6484 23.6651 61.4489 23.8733L58.289 27.1707C56.9388 28.5797 55.5295 29.2802 54.061 29.2724C52.6041 29.2762 51.2205 28.623 49.9102 27.3127C48.5188 25.9212 47.7857 24.4114 47.711 22.7833C47.6523 21.2799 48.2391 19.8304 49.4715 18.4349C49.6276 18.2582 49.8958 18.2558 50.0624 18.4224L52.8369 21.1969C53.0021 21.3622 53.0038 21.6308 52.8595 21.8152C52.189 22.672 52.1636 23.4103 52.7834 24.0301C53.4096 24.6562 54.1084 24.5668 54.8799 23.7616L61.9109 16.4246C61.968 16.365 61.9999 16.2857 61.9999 16.2032V15.9122C61.9999 15.4084 61.5915 15 61.0877 15H46.9122Z" fill="url(#paint21_linear_759_14005)"/>
</g>
<defs>
<linearGradient id="paint0_linear_759_14005" x1="29.2126" y1="92.7954" x2="29.2126" y2="98.2022" gradientUnits="userSpaceOnUse">
<stop stop-color="#CF9034"/>
<stop offset="1" stop-color="#A36710"/>
</linearGradient>
<linearGradient id="paint1_linear_759_14005" x1="35.1888" y1="80.9028" x2="35.1888" y2="91.9211" gradientUnits="userSpaceOnUse">
<stop stop-color="#CF9034"/>
<stop offset="1" stop-color="#A36710"/>
</linearGradient>
<linearGradient id="paint2_linear_759_14005" x1="16.1666" y1="85.2798" x2="16.1666" y2="90.9249" gradientUnits="userSpaceOnUse">
<stop stop-color="#CF9034"/>
<stop offset="1" stop-color="#A36710"/>
</linearGradient>
<linearGradient id="paint3_linear_759_14005" x1="24.4549" y1="73.6069" x2="24.4549" y2="86.1241" gradientUnits="userSpaceOnUse">
<stop stop-color="#CF9034"/>
<stop offset="1" stop-color="#A36710"/>
</linearGradient>
<linearGradient id="paint4_linear_759_14005" x1="6.77503" y1="71.293" x2="6.77503" y2="81.1857" gradientUnits="userSpaceOnUse">
<stop stop-color="#CF9034"/>
<stop offset="1" stop-color="#A36710"/>
</linearGradient>
<linearGradient id="paint5_linear_759_14005" x1="4.05705" y1="14.2378" x2="4.05705" y2="29.7728" gradientUnits="userSpaceOnUse">
<stop stop-color="#CF9034"/>
<stop offset="1" stop-color="#A36710"/>
</linearGradient>
<linearGradient id="paint6_linear_759_14005" x1="14.4171" y1="21.917" x2="14.4171" y2="29.9288" gradientUnits="userSpaceOnUse">
<stop stop-color="#CF9034"/>
<stop offset="1" stop-color="#A36710"/>
</linearGradient>
<linearGradient id="paint7_linear_759_14005" x1="11.0636" y1="2.75586" x2="11.0636" y2="17.8339" gradientUnits="userSpaceOnUse">
<stop stop-color="#CF9034"/>
<stop offset="1" stop-color="#A36710"/>
</linearGradient>
<linearGradient id="paint8_linear_759_14005" x1="20.6783" y1="13.0146" x2="20.6783" y2="19.3325" gradientUnits="userSpaceOnUse">
<stop stop-color="#CF9034"/>
<stop offset="1" stop-color="#A36710"/>
</linearGradient>
<linearGradient id="paint9_linear_759_14005" x1="54.001" y1="0" x2="54.001" y2="108" gradientUnits="userSpaceOnUse">
<stop stop-color="#CF9034"/>
<stop offset="1" stop-color="#A36710"/>
</linearGradient>
<linearGradient id="paint10_linear_759_14005" x1="78.7728" y1="93.5767" x2="78.7728" y2="99.0036" gradientUnits="userSpaceOnUse">
<stop stop-color="#CF9034"/>
<stop offset="1" stop-color="#A36710"/>
</linearGradient>
<linearGradient id="paint11_linear_759_14005" x1="72.9024" y1="81.6836" x2="72.9024" y2="92.7106" gradientUnits="userSpaceOnUse">
<stop stop-color="#CF9034"/>
<stop offset="1" stop-color="#A36710"/>
</linearGradient>
<linearGradient id="paint12_linear_759_14005" x1="91.9002" y1="86.0835" x2="91.9002" y2="91.7508" gradientUnits="userSpaceOnUse">
<stop stop-color="#CF9034"/>
<stop offset="1" stop-color="#A36710"/>
</linearGradient>
<linearGradient id="paint13_linear_759_14005" x1="83.6483" y1="74.5063" x2="83.6483" y2="86.9644" gradientUnits="userSpaceOnUse">
<stop stop-color="#CF9034"/>
<stop offset="1" stop-color="#A36710"/>
</linearGradient>
<linearGradient id="paint14_linear_759_14005" x1="101.225" y1="72.0596" x2="101.225" y2="82.0739" gradientUnits="userSpaceOnUse">
<stop stop-color="#CF9034"/>
<stop offset="1" stop-color="#A36710"/>
</linearGradient>
<linearGradient id="paint15_linear_759_14005" x1="103.943" y1="14.9458" x2="103.943" y2="30.3629" gradientUnits="userSpaceOnUse">
<stop stop-color="#CF9034"/>
<stop offset="1" stop-color="#A36710"/>
</linearGradient>
<linearGradient id="paint16_linear_759_14005" x1="93.5755" y1="22.8311" x2="93.5755" y2="30.8189" gradientUnits="userSpaceOnUse">
<stop stop-color="#CF9034"/>
<stop offset="1" stop-color="#A36710"/>
</linearGradient>
<linearGradient id="paint17_linear_759_14005" x1="97.001" y1="3.58154" x2="97.001" y2="18.6596" gradientUnits="userSpaceOnUse">
<stop stop-color="#CF9034"/>
<stop offset="1" stop-color="#A36710"/>
</linearGradient>
<linearGradient id="paint18_linear_759_14005" x1="87.2332" y1="13.854" x2="87.2332" y2="20.0909" gradientUnits="userSpaceOnUse">
<stop stop-color="#CF9034"/>
<stop offset="1" stop-color="#A36710"/>
</linearGradient>
<linearGradient id="paint19_linear_759_14005" x1="54" y1="53" x2="54" y2="65" gradientUnits="userSpaceOnUse">
<stop stop-color="#CF9034"/>
<stop offset="1" stop-color="#A36710"/>
</linearGradient>
<linearGradient id="paint20_linear_759_14005" x1="54" y1="39" x2="54" y2="53" gradientUnits="userSpaceOnUse">
<stop stop-color="#CF9034"/>
<stop offset="1" stop-color="#A36710"/>
</linearGradient>
<linearGradient id="paint21_linear_759_14005" x1="53.9999" y1="15" x2="53.9999" y2="31" gradientUnits="userSpaceOnUse">
<stop stop-color="#CF9034"/>
<stop offset="1" stop-color="#A36710"/>
</linearGradient>
<clipPath id="clip0_759_14005">
<rect width="108" height="108" fill="white"/>
</clipPath>
</defs>
</svg>